<mxfile host="app.diagrams.net" modified="2024-05-26T07:43:42.971Z" agent="Mozilla/5.0 (Windows NT 10.0; Win64; x64) AppleWebKit/537.36 (KHTML, like Gecko) Chrome/122.0.0.0 YaBrowser/24.4.0.0 Safari/537.36" etag="8PDyFORr3lMxTYZXfYW0" version="24.4.8" type="google" pages="3">
  <diagram name="Задание 1" id="qKbJCmeVu94LwKyslBi7">
    <mxGraphModel grid="1" page="1" gridSize="10" guides="1" tooltips="1" connect="1" arrows="1" fold="1" pageScale="1" pageWidth="1169" pageHeight="827" math="0" shadow="0">
      <root>
        <mxCell id="0" />
        <mxCell id="1" parent="0" />
        <mxCell id="3CFqoPACsOQvq-wWQX1Y-10" value="Студенты" style="swimlane;whiteSpace=wrap;html=1;fillColor=#FFFFFF;startSize=20;" vertex="1" parent="1">
          <mxGeometry x="40" y="40" width="160" height="130" as="geometry" />
        </mxCell>
        <mxCell id="3CFqoPACsOQvq-wWQX1Y-11" value="PK" style="text;html=1;align=center;verticalAlign=middle;whiteSpace=wrap;rounded=0;" vertex="1" parent="3CFqoPACsOQvq-wWQX1Y-10">
          <mxGeometry y="20" width="40" height="20" as="geometry" />
        </mxCell>
        <mxCell id="3CFqoPACsOQvq-wWQX1Y-12" value="ID Студента" style="text;html=1;align=center;verticalAlign=middle;whiteSpace=wrap;rounded=0;" vertex="1" parent="3CFqoPACsOQvq-wWQX1Y-10">
          <mxGeometry x="40" y="20" width="120" height="20" as="geometry" />
        </mxCell>
        <mxCell id="3CFqoPACsOQvq-wWQX1Y-14" value="ФИО Студента" style="text;html=1;align=center;verticalAlign=middle;whiteSpace=wrap;rounded=0;fontStyle=4;fontSize=12;" vertex="1" parent="3CFqoPACsOQvq-wWQX1Y-10">
          <mxGeometry x="40" y="40" width="120" height="30" as="geometry" />
        </mxCell>
        <mxCell id="3CFqoPACsOQvq-wWQX1Y-15" value="Дата рождения" style="text;html=1;align=center;verticalAlign=middle;whiteSpace=wrap;rounded=0;fontStyle=4" vertex="1" parent="3CFqoPACsOQvq-wWQX1Y-10">
          <mxGeometry x="40" y="70" width="120" height="30" as="geometry" />
        </mxCell>
        <mxCell id="3CFqoPACsOQvq-wWQX1Y-16" value="" style="endArrow=none;html=1;rounded=0;entryX=0;entryY=0;entryDx=0;entryDy=0;exitX=0.25;exitY=1;exitDx=0;exitDy=0;" edge="1" parent="3CFqoPACsOQvq-wWQX1Y-10" source="3CFqoPACsOQvq-wWQX1Y-10" target="3CFqoPACsOQvq-wWQX1Y-12">
          <mxGeometry width="50" height="50" relative="1" as="geometry">
            <mxPoint x="160" y="120" as="sourcePoint" />
            <mxPoint x="210" y="70" as="targetPoint" />
          </mxGeometry>
        </mxCell>
        <mxCell id="3CFqoPACsOQvq-wWQX1Y-17" value="Номер телефона" style="text;html=1;align=center;verticalAlign=middle;whiteSpace=wrap;rounded=0;fontStyle=4" vertex="1" parent="3CFqoPACsOQvq-wWQX1Y-10">
          <mxGeometry x="40" y="100" width="120" height="30" as="geometry" />
        </mxCell>
        <mxCell id="3CFqoPACsOQvq-wWQX1Y-13" value="" style="endArrow=none;html=1;rounded=0;entryX=0;entryY=1;entryDx=0;entryDy=0;exitX=1;exitY=1;exitDx=0;exitDy=0;" edge="1" parent="3CFqoPACsOQvq-wWQX1Y-10" source="3CFqoPACsOQvq-wWQX1Y-12" target="3CFqoPACsOQvq-wWQX1Y-11">
          <mxGeometry width="50" height="50" relative="1" as="geometry">
            <mxPoint x="200" y="40" as="sourcePoint" />
            <mxPoint x="250" y="70" as="targetPoint" />
          </mxGeometry>
        </mxCell>
        <mxCell id="3CFqoPACsOQvq-wWQX1Y-20" value="Преподаватели" style="swimlane;whiteSpace=wrap;html=1;fillColor=#FFFFFF;startSize=20;" vertex="1" parent="1">
          <mxGeometry x="500" y="40" width="160" height="160" as="geometry" />
        </mxCell>
        <mxCell id="3CFqoPACsOQvq-wWQX1Y-21" value="PK" style="text;html=1;align=center;verticalAlign=middle;whiteSpace=wrap;rounded=0;" vertex="1" parent="3CFqoPACsOQvq-wWQX1Y-20">
          <mxGeometry y="20" width="40" height="20" as="geometry" />
        </mxCell>
        <mxCell id="3CFqoPACsOQvq-wWQX1Y-22" value="ID Преподавателя" style="text;html=1;align=center;verticalAlign=middle;whiteSpace=wrap;rounded=0;" vertex="1" parent="3CFqoPACsOQvq-wWQX1Y-20">
          <mxGeometry x="40" y="20" width="120" height="20" as="geometry" />
        </mxCell>
        <mxCell id="3CFqoPACsOQvq-wWQX1Y-23" value="ФИО Преподавателя" style="text;html=1;align=center;verticalAlign=middle;whiteSpace=wrap;rounded=0;fontStyle=4;fontSize=12;" vertex="1" parent="3CFqoPACsOQvq-wWQX1Y-20">
          <mxGeometry x="40" y="40" width="120" height="30" as="geometry" />
        </mxCell>
        <mxCell id="3CFqoPACsOQvq-wWQX1Y-24" value="Дата рождения" style="text;html=1;align=center;verticalAlign=middle;whiteSpace=wrap;rounded=0;fontStyle=4" vertex="1" parent="3CFqoPACsOQvq-wWQX1Y-20">
          <mxGeometry x="40" y="70" width="120" height="30" as="geometry" />
        </mxCell>
        <mxCell id="3CFqoPACsOQvq-wWQX1Y-25" value="" style="endArrow=none;html=1;rounded=0;entryX=0;entryY=0;entryDx=0;entryDy=0;exitX=0.25;exitY=1;exitDx=0;exitDy=0;" edge="1" parent="3CFqoPACsOQvq-wWQX1Y-20" source="3CFqoPACsOQvq-wWQX1Y-20" target="3CFqoPACsOQvq-wWQX1Y-22">
          <mxGeometry width="50" height="50" relative="1" as="geometry">
            <mxPoint x="160" y="120" as="sourcePoint" />
            <mxPoint x="210" y="70" as="targetPoint" />
          </mxGeometry>
        </mxCell>
        <mxCell id="3CFqoPACsOQvq-wWQX1Y-26" value="Номер телефона" style="text;html=1;align=center;verticalAlign=middle;whiteSpace=wrap;rounded=0;fontStyle=4" vertex="1" parent="3CFqoPACsOQvq-wWQX1Y-20">
          <mxGeometry x="40" y="100" width="120" height="30" as="geometry" />
        </mxCell>
        <mxCell id="3CFqoPACsOQvq-wWQX1Y-27" value="" style="endArrow=none;html=1;rounded=0;entryX=0;entryY=1;entryDx=0;entryDy=0;exitX=1;exitY=1;exitDx=0;exitDy=0;" edge="1" parent="3CFqoPACsOQvq-wWQX1Y-20" source="3CFqoPACsOQvq-wWQX1Y-22" target="3CFqoPACsOQvq-wWQX1Y-21">
          <mxGeometry width="50" height="50" relative="1" as="geometry">
            <mxPoint x="200" y="40" as="sourcePoint" />
            <mxPoint x="250" y="70" as="targetPoint" />
          </mxGeometry>
        </mxCell>
        <mxCell id="3CFqoPACsOQvq-wWQX1Y-46" value="ID Кафедры" style="text;html=1;align=center;verticalAlign=middle;whiteSpace=wrap;rounded=0;fontStyle=4" vertex="1" parent="3CFqoPACsOQvq-wWQX1Y-20">
          <mxGeometry x="40" y="130" width="120" height="30" as="geometry" />
        </mxCell>
        <mxCell id="3CFqoPACsOQvq-wWQX1Y-47" value="FK" style="text;html=1;align=center;verticalAlign=middle;whiteSpace=wrap;rounded=0;" vertex="1" parent="3CFqoPACsOQvq-wWQX1Y-20">
          <mxGeometry y="135" width="40" height="20" as="geometry" />
        </mxCell>
        <mxCell id="3CFqoPACsOQvq-wWQX1Y-28" value="Курсы" style="swimlane;whiteSpace=wrap;html=1;fillColor=#FFFFFF;startSize=20;" vertex="1" parent="1">
          <mxGeometry x="280" y="240" width="160" height="130" as="geometry" />
        </mxCell>
        <mxCell id="3CFqoPACsOQvq-wWQX1Y-29" value="PK" style="text;html=1;align=center;verticalAlign=middle;whiteSpace=wrap;rounded=0;" vertex="1" parent="3CFqoPACsOQvq-wWQX1Y-28">
          <mxGeometry y="20" width="40" height="20" as="geometry" />
        </mxCell>
        <mxCell id="3CFqoPACsOQvq-wWQX1Y-30" value="ID Курса" style="text;html=1;align=center;verticalAlign=middle;whiteSpace=wrap;rounded=0;" vertex="1" parent="3CFqoPACsOQvq-wWQX1Y-28">
          <mxGeometry x="40" y="20" width="120" height="20" as="geometry" />
        </mxCell>
        <mxCell id="3CFqoPACsOQvq-wWQX1Y-31" value="Название курса" style="text;html=1;align=center;verticalAlign=middle;whiteSpace=wrap;rounded=0;fontStyle=4;fontSize=12;" vertex="1" parent="3CFqoPACsOQvq-wWQX1Y-28">
          <mxGeometry x="40" y="40" width="120" height="30" as="geometry" />
        </mxCell>
        <mxCell id="3CFqoPACsOQvq-wWQX1Y-32" value="ID Преподавателя" style="text;html=1;align=center;verticalAlign=middle;whiteSpace=wrap;rounded=0;fontStyle=4" vertex="1" parent="3CFqoPACsOQvq-wWQX1Y-28">
          <mxGeometry x="40" y="70" width="120" height="30" as="geometry" />
        </mxCell>
        <mxCell id="3CFqoPACsOQvq-wWQX1Y-33" value="" style="endArrow=none;html=1;rounded=0;entryX=0;entryY=0;entryDx=0;entryDy=0;exitX=0.25;exitY=1;exitDx=0;exitDy=0;" edge="1" parent="3CFqoPACsOQvq-wWQX1Y-28" source="3CFqoPACsOQvq-wWQX1Y-28" target="3CFqoPACsOQvq-wWQX1Y-30">
          <mxGeometry width="50" height="50" relative="1" as="geometry">
            <mxPoint x="160" y="120" as="sourcePoint" />
            <mxPoint x="210" y="70" as="targetPoint" />
          </mxGeometry>
        </mxCell>
        <mxCell id="3CFqoPACsOQvq-wWQX1Y-34" value="Длительность, часов" style="text;html=1;align=center;verticalAlign=middle;whiteSpace=wrap;rounded=0;fontStyle=4" vertex="1" parent="3CFqoPACsOQvq-wWQX1Y-28">
          <mxGeometry x="40" y="100" width="120" height="30" as="geometry" />
        </mxCell>
        <mxCell id="3CFqoPACsOQvq-wWQX1Y-35" value="" style="endArrow=none;html=1;rounded=0;entryX=0;entryY=1;entryDx=0;entryDy=0;exitX=1;exitY=1;exitDx=0;exitDy=0;" edge="1" parent="3CFqoPACsOQvq-wWQX1Y-28" source="3CFqoPACsOQvq-wWQX1Y-30" target="3CFqoPACsOQvq-wWQX1Y-29">
          <mxGeometry width="50" height="50" relative="1" as="geometry">
            <mxPoint x="200" y="40" as="sourcePoint" />
            <mxPoint x="250" y="70" as="targetPoint" />
          </mxGeometry>
        </mxCell>
        <mxCell id="3CFqoPACsOQvq-wWQX1Y-36" value="FK" style="text;html=1;align=center;verticalAlign=middle;whiteSpace=wrap;rounded=0;" vertex="1" parent="3CFqoPACsOQvq-wWQX1Y-28">
          <mxGeometry y="75" width="40" height="20" as="geometry" />
        </mxCell>
        <mxCell id="3CFqoPACsOQvq-wWQX1Y-37" value="Кафедры" style="swimlane;whiteSpace=wrap;html=1;fillColor=#FFFFFF;startSize=20;" vertex="1" parent="1">
          <mxGeometry x="720" y="40" width="160" height="100" as="geometry" />
        </mxCell>
        <mxCell id="3CFqoPACsOQvq-wWQX1Y-38" value="PK" style="text;html=1;align=center;verticalAlign=middle;whiteSpace=wrap;rounded=0;" vertex="1" parent="3CFqoPACsOQvq-wWQX1Y-37">
          <mxGeometry y="20" width="40" height="20" as="geometry" />
        </mxCell>
        <mxCell id="3CFqoPACsOQvq-wWQX1Y-39" value="ID Кафедры" style="text;html=1;align=center;verticalAlign=middle;whiteSpace=wrap;rounded=0;" vertex="1" parent="3CFqoPACsOQvq-wWQX1Y-37">
          <mxGeometry x="40" y="20" width="120" height="20" as="geometry" />
        </mxCell>
        <mxCell id="3CFqoPACsOQvq-wWQX1Y-40" value="Название кафедры" style="text;html=1;align=center;verticalAlign=middle;whiteSpace=wrap;rounded=0;fontStyle=4;fontSize=12;" vertex="1" parent="3CFqoPACsOQvq-wWQX1Y-37">
          <mxGeometry x="40" y="40" width="120" height="30" as="geometry" />
        </mxCell>
        <mxCell id="3CFqoPACsOQvq-wWQX1Y-42" value="" style="endArrow=none;html=1;rounded=0;entryX=0;entryY=0;entryDx=0;entryDy=0;exitX=0.25;exitY=1;exitDx=0;exitDy=0;" edge="1" parent="3CFqoPACsOQvq-wWQX1Y-37" source="3CFqoPACsOQvq-wWQX1Y-37" target="3CFqoPACsOQvq-wWQX1Y-39">
          <mxGeometry width="50" height="50" relative="1" as="geometry">
            <mxPoint x="160" y="120" as="sourcePoint" />
            <mxPoint x="210" y="70" as="targetPoint" />
          </mxGeometry>
        </mxCell>
        <mxCell id="3CFqoPACsOQvq-wWQX1Y-43" value="Устав" style="text;html=1;align=center;verticalAlign=middle;whiteSpace=wrap;rounded=0;fontStyle=4" vertex="1" parent="3CFqoPACsOQvq-wWQX1Y-37">
          <mxGeometry x="40" y="70" width="120" height="30" as="geometry" />
        </mxCell>
        <mxCell id="3CFqoPACsOQvq-wWQX1Y-44" value="" style="endArrow=none;html=1;rounded=0;entryX=0;entryY=1;entryDx=0;entryDy=0;exitX=1;exitY=1;exitDx=0;exitDy=0;" edge="1" parent="3CFqoPACsOQvq-wWQX1Y-37" source="3CFqoPACsOQvq-wWQX1Y-39" target="3CFqoPACsOQvq-wWQX1Y-38">
          <mxGeometry width="50" height="50" relative="1" as="geometry">
            <mxPoint x="200" y="40" as="sourcePoint" />
            <mxPoint x="250" y="70" as="targetPoint" />
          </mxGeometry>
        </mxCell>
        <mxCell id="3CFqoPACsOQvq-wWQX1Y-48" value="Зачисления" style="swimlane;whiteSpace=wrap;html=1;fillColor=#FFFFFF;startSize=20;" vertex="1" parent="1">
          <mxGeometry x="40" y="240" width="160" height="130" as="geometry" />
        </mxCell>
        <mxCell id="3CFqoPACsOQvq-wWQX1Y-49" value="PK" style="text;html=1;align=center;verticalAlign=middle;whiteSpace=wrap;rounded=0;" vertex="1" parent="3CFqoPACsOQvq-wWQX1Y-48">
          <mxGeometry y="20" width="40" height="20" as="geometry" />
        </mxCell>
        <mxCell id="3CFqoPACsOQvq-wWQX1Y-50" value="ID Зачисления" style="text;html=1;align=center;verticalAlign=middle;whiteSpace=wrap;rounded=0;" vertex="1" parent="3CFqoPACsOQvq-wWQX1Y-48">
          <mxGeometry x="40" y="20" width="120" height="20" as="geometry" />
        </mxCell>
        <mxCell id="3CFqoPACsOQvq-wWQX1Y-51" value="ID Студента" style="text;html=1;align=center;verticalAlign=middle;whiteSpace=wrap;rounded=0;fontStyle=4;fontSize=12;" vertex="1" parent="3CFqoPACsOQvq-wWQX1Y-48">
          <mxGeometry x="40" y="40" width="120" height="30" as="geometry" />
        </mxCell>
        <mxCell id="3CFqoPACsOQvq-wWQX1Y-52" value="ID Курса" style="text;html=1;align=center;verticalAlign=middle;whiteSpace=wrap;rounded=0;fontStyle=4" vertex="1" parent="3CFqoPACsOQvq-wWQX1Y-48">
          <mxGeometry x="40" y="70" width="120" height="30" as="geometry" />
        </mxCell>
        <mxCell id="3CFqoPACsOQvq-wWQX1Y-53" value="" style="endArrow=none;html=1;rounded=0;entryX=0;entryY=0;entryDx=0;entryDy=0;exitX=0.25;exitY=1;exitDx=0;exitDy=0;" edge="1" parent="3CFqoPACsOQvq-wWQX1Y-48" source="3CFqoPACsOQvq-wWQX1Y-48" target="3CFqoPACsOQvq-wWQX1Y-50">
          <mxGeometry width="50" height="50" relative="1" as="geometry">
            <mxPoint x="160" y="120" as="sourcePoint" />
            <mxPoint x="210" y="70" as="targetPoint" />
          </mxGeometry>
        </mxCell>
        <mxCell id="3CFqoPACsOQvq-wWQX1Y-54" value="Дата зачисления" style="text;html=1;align=center;verticalAlign=middle;whiteSpace=wrap;rounded=0;fontStyle=4" vertex="1" parent="3CFqoPACsOQvq-wWQX1Y-48">
          <mxGeometry x="40" y="100" width="120" height="30" as="geometry" />
        </mxCell>
        <mxCell id="3CFqoPACsOQvq-wWQX1Y-55" value="" style="endArrow=none;html=1;rounded=0;entryX=0;entryY=1;entryDx=0;entryDy=0;exitX=1;exitY=1;exitDx=0;exitDy=0;" edge="1" parent="3CFqoPACsOQvq-wWQX1Y-48" source="3CFqoPACsOQvq-wWQX1Y-50" target="3CFqoPACsOQvq-wWQX1Y-49">
          <mxGeometry width="50" height="50" relative="1" as="geometry">
            <mxPoint x="200" y="40" as="sourcePoint" />
            <mxPoint x="250" y="70" as="targetPoint" />
          </mxGeometry>
        </mxCell>
        <mxCell id="3CFqoPACsOQvq-wWQX1Y-68" value="FK" style="text;html=1;align=center;verticalAlign=middle;whiteSpace=wrap;rounded=0;" vertex="1" parent="3CFqoPACsOQvq-wWQX1Y-48">
          <mxGeometry y="45" width="40" height="20" as="geometry" />
        </mxCell>
        <mxCell id="3CFqoPACsOQvq-wWQX1Y-69" value="FK" style="text;html=1;align=center;verticalAlign=middle;whiteSpace=wrap;rounded=0;" vertex="1" parent="3CFqoPACsOQvq-wWQX1Y-48">
          <mxGeometry y="75" width="40" height="20" as="geometry" />
        </mxCell>
        <mxCell id="3CFqoPACsOQvq-wWQX1Y-70" value="" style="edgeStyle=entityRelationEdgeStyle;fontSize=12;html=1;endArrow=ERmany;rounded=0;entryX=1;entryY=0.5;entryDx=0;entryDy=0;exitX=0;exitY=0.5;exitDx=0;exitDy=0;" edge="1" parent="1" source="3CFqoPACsOQvq-wWQX1Y-38" target="3CFqoPACsOQvq-wWQX1Y-46">
          <mxGeometry width="100" height="100" relative="1" as="geometry">
            <mxPoint x="680" y="300" as="sourcePoint" />
            <mxPoint x="710" y="240" as="targetPoint" />
          </mxGeometry>
        </mxCell>
        <mxCell id="3CFqoPACsOQvq-wWQX1Y-71" value="" style="edgeStyle=entityRelationEdgeStyle;fontSize=12;html=1;endArrow=ERmany;rounded=0;entryX=1;entryY=0.5;entryDx=0;entryDy=0;exitX=0;exitY=0.5;exitDx=0;exitDy=0;" edge="1" parent="1" source="3CFqoPACsOQvq-wWQX1Y-21" target="3CFqoPACsOQvq-wWQX1Y-32">
          <mxGeometry width="100" height="100" relative="1" as="geometry">
            <mxPoint x="650" y="230" as="sourcePoint" />
            <mxPoint x="590" y="325" as="targetPoint" />
          </mxGeometry>
        </mxCell>
        <mxCell id="3CFqoPACsOQvq-wWQX1Y-73" value="" style="edgeStyle=entityRelationEdgeStyle;fontSize=12;html=1;endArrow=ERmany;rounded=0;entryX=1;entryY=0.75;entryDx=0;entryDy=0;exitX=1;exitY=0.5;exitDx=0;exitDy=0;" edge="1" parent="1" source="3CFqoPACsOQvq-wWQX1Y-12" target="3CFqoPACsOQvq-wWQX1Y-51">
          <mxGeometry width="100" height="100" relative="1" as="geometry">
            <mxPoint x="310" y="70" as="sourcePoint" />
            <mxPoint x="250" y="325" as="targetPoint" />
          </mxGeometry>
        </mxCell>
        <mxCell id="3CFqoPACsOQvq-wWQX1Y-74" value="" style="edgeStyle=entityRelationEdgeStyle;fontSize=12;html=1;endArrow=ERmany;rounded=0;entryX=1;entryY=0.5;entryDx=0;entryDy=0;exitX=0;exitY=0.5;exitDx=0;exitDy=0;" edge="1" parent="1" source="3CFqoPACsOQvq-wWQX1Y-29" target="3CFqoPACsOQvq-wWQX1Y-52">
          <mxGeometry width="100" height="100" relative="1" as="geometry">
            <mxPoint x="360" y="70" as="sourcePoint" />
            <mxPoint x="300" y="325" as="targetPoint" />
            <Array as="points">
              <mxPoint x="280" y="320" />
            </Array>
          </mxGeometry>
        </mxCell>
      </root>
    </mxGraphModel>
  </diagram>
  <diagram id="kSlBNkcu-EDpkYVfwwrR" name="Задание 2">
    <mxGraphModel dx="1002" dy="567" grid="1" gridSize="10" guides="1" tooltips="1" connect="1" arrows="1" fold="1" page="1" pageScale="1" pageWidth="1169" pageHeight="827" math="0" shadow="0">
      <root>
        <mxCell id="0" />
        <mxCell id="1" parent="0" />
        <mxCell id="o3NR5IwMdfRiJCEFoLTd-1" value="Студенты" style="swimlane;whiteSpace=wrap;html=1;fillColor=#FFFFFF;startSize=20;" vertex="1" parent="1">
          <mxGeometry x="260" y="210" width="160" height="130" as="geometry" />
        </mxCell>
        <mxCell id="o3NR5IwMdfRiJCEFoLTd-2" value="PK" style="text;html=1;align=center;verticalAlign=middle;whiteSpace=wrap;rounded=0;" vertex="1" parent="o3NR5IwMdfRiJCEFoLTd-1">
          <mxGeometry y="20" width="40" height="20" as="geometry" />
        </mxCell>
        <mxCell id="o3NR5IwMdfRiJCEFoLTd-3" value="ID Студента" style="text;html=1;align=center;verticalAlign=middle;whiteSpace=wrap;rounded=0;" vertex="1" parent="o3NR5IwMdfRiJCEFoLTd-1">
          <mxGeometry x="40" y="20" width="120" height="20" as="geometry" />
        </mxCell>
        <mxCell id="o3NR5IwMdfRiJCEFoLTd-4" value="ФИО Студента" style="text;html=1;align=center;verticalAlign=middle;whiteSpace=wrap;rounded=0;fontStyle=4;fontSize=12;" vertex="1" parent="o3NR5IwMdfRiJCEFoLTd-1">
          <mxGeometry x="40" y="40" width="120" height="30" as="geometry" />
        </mxCell>
        <mxCell id="o3NR5IwMdfRiJCEFoLTd-5" value="Дата рождения" style="text;html=1;align=center;verticalAlign=middle;whiteSpace=wrap;rounded=0;fontStyle=4" vertex="1" parent="o3NR5IwMdfRiJCEFoLTd-1">
          <mxGeometry x="40" y="70" width="120" height="30" as="geometry" />
        </mxCell>
        <mxCell id="o3NR5IwMdfRiJCEFoLTd-6" value="" style="endArrow=none;html=1;rounded=0;entryX=0;entryY=0;entryDx=0;entryDy=0;exitX=0.25;exitY=1;exitDx=0;exitDy=0;" edge="1" parent="o3NR5IwMdfRiJCEFoLTd-1" source="o3NR5IwMdfRiJCEFoLTd-1" target="o3NR5IwMdfRiJCEFoLTd-3">
          <mxGeometry width="50" height="50" relative="1" as="geometry">
            <mxPoint x="160" y="120" as="sourcePoint" />
            <mxPoint x="210" y="70" as="targetPoint" />
          </mxGeometry>
        </mxCell>
        <mxCell id="o3NR5IwMdfRiJCEFoLTd-7" value="Номер телефона" style="text;html=1;align=center;verticalAlign=middle;whiteSpace=wrap;rounded=0;fontStyle=4" vertex="1" parent="o3NR5IwMdfRiJCEFoLTd-1">
          <mxGeometry x="40" y="100" width="120" height="30" as="geometry" />
        </mxCell>
        <mxCell id="o3NR5IwMdfRiJCEFoLTd-8" value="" style="endArrow=none;html=1;rounded=0;entryX=0;entryY=1;entryDx=0;entryDy=0;exitX=1;exitY=1;exitDx=0;exitDy=0;" edge="1" parent="o3NR5IwMdfRiJCEFoLTd-1" source="o3NR5IwMdfRiJCEFoLTd-3" target="o3NR5IwMdfRiJCEFoLTd-2">
          <mxGeometry width="50" height="50" relative="1" as="geometry">
            <mxPoint x="200" y="40" as="sourcePoint" />
            <mxPoint x="250" y="70" as="targetPoint" />
          </mxGeometry>
        </mxCell>
        <mxCell id="o3NR5IwMdfRiJCEFoLTd-9" value="Преподаватели" style="swimlane;whiteSpace=wrap;html=1;fillColor=#FFFFFF;startSize=20;" vertex="1" parent="1">
          <mxGeometry x="710" y="210" width="160" height="160" as="geometry" />
        </mxCell>
        <mxCell id="o3NR5IwMdfRiJCEFoLTd-10" value="PK" style="text;html=1;align=center;verticalAlign=middle;whiteSpace=wrap;rounded=0;" vertex="1" parent="o3NR5IwMdfRiJCEFoLTd-9">
          <mxGeometry y="20" width="40" height="20" as="geometry" />
        </mxCell>
        <mxCell id="o3NR5IwMdfRiJCEFoLTd-11" value="ID Преподавателя" style="text;html=1;align=center;verticalAlign=middle;whiteSpace=wrap;rounded=0;" vertex="1" parent="o3NR5IwMdfRiJCEFoLTd-9">
          <mxGeometry x="40" y="20" width="120" height="20" as="geometry" />
        </mxCell>
        <mxCell id="o3NR5IwMdfRiJCEFoLTd-12" value="ФИО Преподавателя" style="text;html=1;align=center;verticalAlign=middle;whiteSpace=wrap;rounded=0;fontStyle=4;fontSize=12;" vertex="1" parent="o3NR5IwMdfRiJCEFoLTd-9">
          <mxGeometry x="40" y="40" width="120" height="30" as="geometry" />
        </mxCell>
        <mxCell id="o3NR5IwMdfRiJCEFoLTd-13" value="Дата рождения" style="text;html=1;align=center;verticalAlign=middle;whiteSpace=wrap;rounded=0;fontStyle=4" vertex="1" parent="o3NR5IwMdfRiJCEFoLTd-9">
          <mxGeometry x="40" y="70" width="120" height="30" as="geometry" />
        </mxCell>
        <mxCell id="o3NR5IwMdfRiJCEFoLTd-14" value="" style="endArrow=none;html=1;rounded=0;entryX=0;entryY=0;entryDx=0;entryDy=0;exitX=0.25;exitY=1;exitDx=0;exitDy=0;" edge="1" parent="o3NR5IwMdfRiJCEFoLTd-9" source="o3NR5IwMdfRiJCEFoLTd-9" target="o3NR5IwMdfRiJCEFoLTd-11">
          <mxGeometry width="50" height="50" relative="1" as="geometry">
            <mxPoint x="160" y="120" as="sourcePoint" />
            <mxPoint x="210" y="70" as="targetPoint" />
          </mxGeometry>
        </mxCell>
        <mxCell id="o3NR5IwMdfRiJCEFoLTd-15" value="Номер телефона" style="text;html=1;align=center;verticalAlign=middle;whiteSpace=wrap;rounded=0;fontStyle=4" vertex="1" parent="o3NR5IwMdfRiJCEFoLTd-9">
          <mxGeometry x="40" y="100" width="120" height="30" as="geometry" />
        </mxCell>
        <mxCell id="o3NR5IwMdfRiJCEFoLTd-16" value="" style="endArrow=none;html=1;rounded=0;entryX=0;entryY=1;entryDx=0;entryDy=0;exitX=1;exitY=1;exitDx=0;exitDy=0;" edge="1" parent="o3NR5IwMdfRiJCEFoLTd-9" source="o3NR5IwMdfRiJCEFoLTd-11" target="o3NR5IwMdfRiJCEFoLTd-10">
          <mxGeometry width="50" height="50" relative="1" as="geometry">
            <mxPoint x="200" y="40" as="sourcePoint" />
            <mxPoint x="250" y="70" as="targetPoint" />
          </mxGeometry>
        </mxCell>
        <mxCell id="o3NR5IwMdfRiJCEFoLTd-17" value="ID Кафедры" style="text;html=1;align=center;verticalAlign=middle;whiteSpace=wrap;rounded=0;fontStyle=4" vertex="1" parent="o3NR5IwMdfRiJCEFoLTd-9">
          <mxGeometry x="40" y="130" width="120" height="30" as="geometry" />
        </mxCell>
        <mxCell id="o3NR5IwMdfRiJCEFoLTd-18" value="FK" style="text;html=1;align=center;verticalAlign=middle;whiteSpace=wrap;rounded=0;" vertex="1" parent="o3NR5IwMdfRiJCEFoLTd-9">
          <mxGeometry y="135" width="40" height="20" as="geometry" />
        </mxCell>
        <mxCell id="o3NR5IwMdfRiJCEFoLTd-19" value="Курсы" style="swimlane;whiteSpace=wrap;html=1;fillColor=#FFFFFF;startSize=20;" vertex="1" parent="1">
          <mxGeometry x="490" y="340" width="160" height="130" as="geometry" />
        </mxCell>
        <mxCell id="o3NR5IwMdfRiJCEFoLTd-20" value="PK" style="text;html=1;align=center;verticalAlign=middle;whiteSpace=wrap;rounded=0;" vertex="1" parent="o3NR5IwMdfRiJCEFoLTd-19">
          <mxGeometry y="20" width="40" height="20" as="geometry" />
        </mxCell>
        <mxCell id="o3NR5IwMdfRiJCEFoLTd-21" value="ID Курса" style="text;html=1;align=center;verticalAlign=middle;whiteSpace=wrap;rounded=0;" vertex="1" parent="o3NR5IwMdfRiJCEFoLTd-19">
          <mxGeometry x="40" y="20" width="120" height="20" as="geometry" />
        </mxCell>
        <mxCell id="o3NR5IwMdfRiJCEFoLTd-22" value="Название курса" style="text;html=1;align=center;verticalAlign=middle;whiteSpace=wrap;rounded=0;fontStyle=4;fontSize=12;" vertex="1" parent="o3NR5IwMdfRiJCEFoLTd-19">
          <mxGeometry x="40" y="40" width="120" height="30" as="geometry" />
        </mxCell>
        <mxCell id="o3NR5IwMdfRiJCEFoLTd-23" value="ID Преподавателя" style="text;html=1;align=center;verticalAlign=middle;whiteSpace=wrap;rounded=0;fontStyle=4" vertex="1" parent="o3NR5IwMdfRiJCEFoLTd-19">
          <mxGeometry x="40" y="70" width="120" height="30" as="geometry" />
        </mxCell>
        <mxCell id="o3NR5IwMdfRiJCEFoLTd-24" value="" style="endArrow=none;html=1;rounded=0;entryX=0;entryY=0;entryDx=0;entryDy=0;exitX=0.25;exitY=1;exitDx=0;exitDy=0;" edge="1" parent="o3NR5IwMdfRiJCEFoLTd-19" source="o3NR5IwMdfRiJCEFoLTd-19" target="o3NR5IwMdfRiJCEFoLTd-21">
          <mxGeometry width="50" height="50" relative="1" as="geometry">
            <mxPoint x="160" y="120" as="sourcePoint" />
            <mxPoint x="210" y="70" as="targetPoint" />
          </mxGeometry>
        </mxCell>
        <mxCell id="o3NR5IwMdfRiJCEFoLTd-25" value="Длительность, часов" style="text;html=1;align=center;verticalAlign=middle;whiteSpace=wrap;rounded=0;fontStyle=4" vertex="1" parent="o3NR5IwMdfRiJCEFoLTd-19">
          <mxGeometry x="40" y="100" width="120" height="30" as="geometry" />
        </mxCell>
        <mxCell id="o3NR5IwMdfRiJCEFoLTd-26" value="" style="endArrow=none;html=1;rounded=0;entryX=0;entryY=1;entryDx=0;entryDy=0;exitX=1;exitY=1;exitDx=0;exitDy=0;" edge="1" parent="o3NR5IwMdfRiJCEFoLTd-19" source="o3NR5IwMdfRiJCEFoLTd-21" target="o3NR5IwMdfRiJCEFoLTd-20">
          <mxGeometry width="50" height="50" relative="1" as="geometry">
            <mxPoint x="200" y="40" as="sourcePoint" />
            <mxPoint x="250" y="70" as="targetPoint" />
          </mxGeometry>
        </mxCell>
        <mxCell id="o3NR5IwMdfRiJCEFoLTd-27" value="FK" style="text;html=1;align=center;verticalAlign=middle;whiteSpace=wrap;rounded=0;" vertex="1" parent="o3NR5IwMdfRiJCEFoLTd-19">
          <mxGeometry y="75" width="40" height="20" as="geometry" />
        </mxCell>
        <mxCell id="o3NR5IwMdfRiJCEFoLTd-28" value="Кафедры" style="swimlane;whiteSpace=wrap;html=1;fillColor=#FFFFFF;startSize=20;" vertex="1" parent="1">
          <mxGeometry x="930" y="225" width="160" height="100" as="geometry" />
        </mxCell>
        <mxCell id="o3NR5IwMdfRiJCEFoLTd-29" value="PK" style="text;html=1;align=center;verticalAlign=middle;whiteSpace=wrap;rounded=0;" vertex="1" parent="o3NR5IwMdfRiJCEFoLTd-28">
          <mxGeometry y="20" width="40" height="20" as="geometry" />
        </mxCell>
        <mxCell id="o3NR5IwMdfRiJCEFoLTd-30" value="ID Кафедры" style="text;html=1;align=center;verticalAlign=middle;whiteSpace=wrap;rounded=0;" vertex="1" parent="o3NR5IwMdfRiJCEFoLTd-28">
          <mxGeometry x="40" y="20" width="120" height="20" as="geometry" />
        </mxCell>
        <mxCell id="o3NR5IwMdfRiJCEFoLTd-31" value="Название кафедры" style="text;html=1;align=center;verticalAlign=middle;whiteSpace=wrap;rounded=0;fontStyle=4;fontSize=12;" vertex="1" parent="o3NR5IwMdfRiJCEFoLTd-28">
          <mxGeometry x="40" y="40" width="120" height="30" as="geometry" />
        </mxCell>
        <mxCell id="o3NR5IwMdfRiJCEFoLTd-32" value="" style="endArrow=none;html=1;rounded=0;entryX=0;entryY=0;entryDx=0;entryDy=0;exitX=0.25;exitY=1;exitDx=0;exitDy=0;" edge="1" parent="o3NR5IwMdfRiJCEFoLTd-28" source="o3NR5IwMdfRiJCEFoLTd-28" target="o3NR5IwMdfRiJCEFoLTd-30">
          <mxGeometry width="50" height="50" relative="1" as="geometry">
            <mxPoint x="160" y="120" as="sourcePoint" />
            <mxPoint x="210" y="70" as="targetPoint" />
          </mxGeometry>
        </mxCell>
        <mxCell id="o3NR5IwMdfRiJCEFoLTd-33" value="Устав" style="text;html=1;align=center;verticalAlign=middle;whiteSpace=wrap;rounded=0;fontStyle=4" vertex="1" parent="o3NR5IwMdfRiJCEFoLTd-28">
          <mxGeometry x="40" y="70" width="120" height="30" as="geometry" />
        </mxCell>
        <mxCell id="o3NR5IwMdfRiJCEFoLTd-34" value="" style="endArrow=none;html=1;rounded=0;entryX=0;entryY=1;entryDx=0;entryDy=0;exitX=1;exitY=1;exitDx=0;exitDy=0;" edge="1" parent="o3NR5IwMdfRiJCEFoLTd-28" source="o3NR5IwMdfRiJCEFoLTd-30" target="o3NR5IwMdfRiJCEFoLTd-29">
          <mxGeometry width="50" height="50" relative="1" as="geometry">
            <mxPoint x="200" y="40" as="sourcePoint" />
            <mxPoint x="250" y="70" as="targetPoint" />
          </mxGeometry>
        </mxCell>
        <mxCell id="o3NR5IwMdfRiJCEFoLTd-35" value="Зачисления" style="swimlane;whiteSpace=wrap;html=1;fillColor=#FFFFFF;startSize=20;" vertex="1" parent="1">
          <mxGeometry x="260" y="350" width="160" height="130" as="geometry" />
        </mxCell>
        <mxCell id="o3NR5IwMdfRiJCEFoLTd-36" value="PK" style="text;html=1;align=center;verticalAlign=middle;whiteSpace=wrap;rounded=0;" vertex="1" parent="o3NR5IwMdfRiJCEFoLTd-35">
          <mxGeometry y="20" width="40" height="20" as="geometry" />
        </mxCell>
        <mxCell id="o3NR5IwMdfRiJCEFoLTd-37" value="ID Зачисления" style="text;html=1;align=center;verticalAlign=middle;whiteSpace=wrap;rounded=0;" vertex="1" parent="o3NR5IwMdfRiJCEFoLTd-35">
          <mxGeometry x="40" y="20" width="120" height="20" as="geometry" />
        </mxCell>
        <mxCell id="o3NR5IwMdfRiJCEFoLTd-38" value="ID Студента" style="text;html=1;align=center;verticalAlign=middle;whiteSpace=wrap;rounded=0;fontStyle=4;fontSize=12;" vertex="1" parent="o3NR5IwMdfRiJCEFoLTd-35">
          <mxGeometry x="40" y="40" width="120" height="30" as="geometry" />
        </mxCell>
        <mxCell id="o3NR5IwMdfRiJCEFoLTd-39" value="ID Курса" style="text;html=1;align=center;verticalAlign=middle;whiteSpace=wrap;rounded=0;fontStyle=4" vertex="1" parent="o3NR5IwMdfRiJCEFoLTd-35">
          <mxGeometry x="40" y="70" width="120" height="30" as="geometry" />
        </mxCell>
        <mxCell id="o3NR5IwMdfRiJCEFoLTd-40" value="" style="endArrow=none;html=1;rounded=0;entryX=0;entryY=0;entryDx=0;entryDy=0;exitX=0.25;exitY=1;exitDx=0;exitDy=0;" edge="1" parent="o3NR5IwMdfRiJCEFoLTd-35" source="o3NR5IwMdfRiJCEFoLTd-35" target="o3NR5IwMdfRiJCEFoLTd-37">
          <mxGeometry width="50" height="50" relative="1" as="geometry">
            <mxPoint x="160" y="120" as="sourcePoint" />
            <mxPoint x="210" y="70" as="targetPoint" />
          </mxGeometry>
        </mxCell>
        <mxCell id="o3NR5IwMdfRiJCEFoLTd-41" value="Дата зачисления" style="text;html=1;align=center;verticalAlign=middle;whiteSpace=wrap;rounded=0;fontStyle=4" vertex="1" parent="o3NR5IwMdfRiJCEFoLTd-35">
          <mxGeometry x="40" y="100" width="120" height="30" as="geometry" />
        </mxCell>
        <mxCell id="o3NR5IwMdfRiJCEFoLTd-42" value="" style="endArrow=none;html=1;rounded=0;entryX=0;entryY=1;entryDx=0;entryDy=0;exitX=1;exitY=1;exitDx=0;exitDy=0;" edge="1" parent="o3NR5IwMdfRiJCEFoLTd-35" source="o3NR5IwMdfRiJCEFoLTd-37" target="o3NR5IwMdfRiJCEFoLTd-36">
          <mxGeometry width="50" height="50" relative="1" as="geometry">
            <mxPoint x="200" y="40" as="sourcePoint" />
            <mxPoint x="250" y="70" as="targetPoint" />
          </mxGeometry>
        </mxCell>
        <mxCell id="o3NR5IwMdfRiJCEFoLTd-43" value="FK" style="text;html=1;align=center;verticalAlign=middle;whiteSpace=wrap;rounded=0;" vertex="1" parent="o3NR5IwMdfRiJCEFoLTd-35">
          <mxGeometry y="45" width="40" height="20" as="geometry" />
        </mxCell>
        <mxCell id="o3NR5IwMdfRiJCEFoLTd-44" value="FK" style="text;html=1;align=center;verticalAlign=middle;whiteSpace=wrap;rounded=0;" vertex="1" parent="o3NR5IwMdfRiJCEFoLTd-35">
          <mxGeometry y="75" width="40" height="20" as="geometry" />
        </mxCell>
        <mxCell id="o3NR5IwMdfRiJCEFoLTd-45" value="" style="edgeStyle=entityRelationEdgeStyle;fontSize=12;html=1;endArrow=ERmany;rounded=0;entryX=1;entryY=0.5;entryDx=0;entryDy=0;exitX=0;exitY=0.5;exitDx=0;exitDy=0;" edge="1" parent="1" source="o3NR5IwMdfRiJCEFoLTd-29" target="o3NR5IwMdfRiJCEFoLTd-17">
          <mxGeometry width="100" height="100" relative="1" as="geometry">
            <mxPoint x="870" y="470" as="sourcePoint" />
            <mxPoint x="900" y="410" as="targetPoint" />
          </mxGeometry>
        </mxCell>
        <mxCell id="o3NR5IwMdfRiJCEFoLTd-46" value="" style="edgeStyle=entityRelationEdgeStyle;fontSize=12;html=1;endArrow=ERmany;rounded=0;entryX=1;entryY=0.5;entryDx=0;entryDy=0;exitX=0;exitY=0.5;exitDx=0;exitDy=0;" edge="1" parent="1" source="o3NR5IwMdfRiJCEFoLTd-10" target="o3NR5IwMdfRiJCEFoLTd-23">
          <mxGeometry width="100" height="100" relative="1" as="geometry">
            <mxPoint x="840" y="400" as="sourcePoint" />
            <mxPoint x="780" y="495" as="targetPoint" />
          </mxGeometry>
        </mxCell>
        <mxCell id="o3NR5IwMdfRiJCEFoLTd-47" value="" style="edgeStyle=entityRelationEdgeStyle;fontSize=12;html=1;endArrow=ERmany;rounded=0;entryX=1;entryY=0.75;entryDx=0;entryDy=0;exitX=1;exitY=0.5;exitDx=0;exitDy=0;" edge="1" parent="1" source="o3NR5IwMdfRiJCEFoLTd-3" target="o3NR5IwMdfRiJCEFoLTd-38">
          <mxGeometry width="100" height="100" relative="1" as="geometry">
            <mxPoint x="530" y="240" as="sourcePoint" />
            <mxPoint x="470" y="495" as="targetPoint" />
          </mxGeometry>
        </mxCell>
        <mxCell id="o3NR5IwMdfRiJCEFoLTd-48" value="" style="edgeStyle=entityRelationEdgeStyle;fontSize=12;html=1;endArrow=ERmany;rounded=0;exitX=0;exitY=0.5;exitDx=0;exitDy=0;entryX=1;entryY=0.5;entryDx=0;entryDy=0;" edge="1" parent="1" source="o3NR5IwMdfRiJCEFoLTd-20" target="o3NR5IwMdfRiJCEFoLTd-39">
          <mxGeometry width="100" height="100" relative="1" as="geometry">
            <mxPoint x="550" y="240" as="sourcePoint" />
            <mxPoint x="615" y="345" as="targetPoint" />
            <Array as="points">
              <mxPoint x="470" y="490" />
            </Array>
          </mxGeometry>
        </mxCell>
        <mxCell id="o3NR5IwMdfRiJCEFoLTd-49" value="Домашние задания" style="swimlane;whiteSpace=wrap;html=1;fillColor=#FFFFFF;startSize=20;" vertex="1" parent="1">
          <mxGeometry x="260" y="500" width="160" height="130" as="geometry" />
        </mxCell>
        <mxCell id="o3NR5IwMdfRiJCEFoLTd-50" value="PK" style="text;html=1;align=center;verticalAlign=middle;whiteSpace=wrap;rounded=0;" vertex="1" parent="o3NR5IwMdfRiJCEFoLTd-49">
          <mxGeometry y="20" width="40" height="20" as="geometry" />
        </mxCell>
        <mxCell id="o3NR5IwMdfRiJCEFoLTd-51" value="ID Задания" style="text;html=1;align=center;verticalAlign=middle;whiteSpace=wrap;rounded=0;" vertex="1" parent="o3NR5IwMdfRiJCEFoLTd-49">
          <mxGeometry x="40" y="20" width="120" height="20" as="geometry" />
        </mxCell>
        <mxCell id="o3NR5IwMdfRiJCEFoLTd-52" value="Название задания" style="text;html=1;align=center;verticalAlign=middle;whiteSpace=wrap;rounded=0;fontStyle=4;fontSize=12;" vertex="1" parent="o3NR5IwMdfRiJCEFoLTd-49">
          <mxGeometry x="40" y="40" width="120" height="30" as="geometry" />
        </mxCell>
        <mxCell id="o3NR5IwMdfRiJCEFoLTd-53" value="Описание" style="text;html=1;align=center;verticalAlign=middle;whiteSpace=wrap;rounded=0;fontStyle=4" vertex="1" parent="o3NR5IwMdfRiJCEFoLTd-49">
          <mxGeometry x="40" y="70" width="120" height="30" as="geometry" />
        </mxCell>
        <mxCell id="o3NR5IwMdfRiJCEFoLTd-54" value="" style="endArrow=none;html=1;rounded=0;entryX=0;entryY=0;entryDx=0;entryDy=0;exitX=0.25;exitY=1;exitDx=0;exitDy=0;" edge="1" parent="o3NR5IwMdfRiJCEFoLTd-49" source="o3NR5IwMdfRiJCEFoLTd-49" target="o3NR5IwMdfRiJCEFoLTd-51">
          <mxGeometry width="50" height="50" relative="1" as="geometry">
            <mxPoint x="160" y="120" as="sourcePoint" />
            <mxPoint x="210" y="70" as="targetPoint" />
          </mxGeometry>
        </mxCell>
        <mxCell id="o3NR5IwMdfRiJCEFoLTd-56" value="" style="endArrow=none;html=1;rounded=0;entryX=0;entryY=1;entryDx=0;entryDy=0;exitX=1;exitY=1;exitDx=0;exitDy=0;" edge="1" parent="o3NR5IwMdfRiJCEFoLTd-49" source="o3NR5IwMdfRiJCEFoLTd-51" target="o3NR5IwMdfRiJCEFoLTd-50">
          <mxGeometry width="50" height="50" relative="1" as="geometry">
            <mxPoint x="200" y="40" as="sourcePoint" />
            <mxPoint x="250" y="70" as="targetPoint" />
          </mxGeometry>
        </mxCell>
        <mxCell id="o3NR5IwMdfRiJCEFoLTd-57" value="ID Курса" style="text;html=1;align=center;verticalAlign=middle;whiteSpace=wrap;rounded=0;fontStyle=4" vertex="1" parent="o3NR5IwMdfRiJCEFoLTd-49">
          <mxGeometry x="40" y="100" width="120" height="30" as="geometry" />
        </mxCell>
        <mxCell id="o3NR5IwMdfRiJCEFoLTd-58" value="FK" style="text;html=1;align=center;verticalAlign=middle;whiteSpace=wrap;rounded=0;" vertex="1" parent="o3NR5IwMdfRiJCEFoLTd-49">
          <mxGeometry y="105" width="40" height="20" as="geometry" />
        </mxCell>
        <mxCell id="o3NR5IwMdfRiJCEFoLTd-59" value="Выполнение ДЗ" style="swimlane;whiteSpace=wrap;html=1;fillColor=#FFFFFF;startSize=20;" vertex="1" parent="1">
          <mxGeometry x="40" y="180" width="160" height="160" as="geometry" />
        </mxCell>
        <mxCell id="o3NR5IwMdfRiJCEFoLTd-60" value="PK" style="text;html=1;align=center;verticalAlign=middle;whiteSpace=wrap;rounded=0;" vertex="1" parent="o3NR5IwMdfRiJCEFoLTd-59">
          <mxGeometry y="20" width="40" height="20" as="geometry" />
        </mxCell>
        <mxCell id="o3NR5IwMdfRiJCEFoLTd-61" value="ID Выполнения" style="text;html=1;align=center;verticalAlign=middle;whiteSpace=wrap;rounded=0;" vertex="1" parent="o3NR5IwMdfRiJCEFoLTd-59">
          <mxGeometry x="40" y="20" width="120" height="20" as="geometry" />
        </mxCell>
        <mxCell id="o3NR5IwMdfRiJCEFoLTd-62" value="ID Студента" style="text;html=1;align=center;verticalAlign=middle;whiteSpace=wrap;rounded=0;fontStyle=4;fontSize=12;" vertex="1" parent="o3NR5IwMdfRiJCEFoLTd-59">
          <mxGeometry x="40" y="40" width="120" height="30" as="geometry" />
        </mxCell>
        <mxCell id="o3NR5IwMdfRiJCEFoLTd-64" value="" style="endArrow=none;html=1;rounded=0;entryX=0;entryY=0;entryDx=0;entryDy=0;exitX=0.25;exitY=1;exitDx=0;exitDy=0;" edge="1" parent="o3NR5IwMdfRiJCEFoLTd-59" source="o3NR5IwMdfRiJCEFoLTd-59" target="o3NR5IwMdfRiJCEFoLTd-61">
          <mxGeometry width="50" height="50" relative="1" as="geometry">
            <mxPoint x="160" y="120" as="sourcePoint" />
            <mxPoint x="210" y="70" as="targetPoint" />
          </mxGeometry>
        </mxCell>
        <mxCell id="o3NR5IwMdfRiJCEFoLTd-66" value="" style="endArrow=none;html=1;rounded=0;entryX=0;entryY=1;entryDx=0;entryDy=0;exitX=1;exitY=1;exitDx=0;exitDy=0;" edge="1" parent="o3NR5IwMdfRiJCEFoLTd-59" source="o3NR5IwMdfRiJCEFoLTd-61" target="o3NR5IwMdfRiJCEFoLTd-60">
          <mxGeometry width="50" height="50" relative="1" as="geometry">
            <mxPoint x="200" y="40" as="sourcePoint" />
            <mxPoint x="250" y="70" as="targetPoint" />
          </mxGeometry>
        </mxCell>
        <mxCell id="o3NR5IwMdfRiJCEFoLTd-67" value="ID Задания" style="text;html=1;align=center;verticalAlign=middle;whiteSpace=wrap;rounded=0;fontStyle=4" vertex="1" parent="o3NR5IwMdfRiJCEFoLTd-59">
          <mxGeometry x="40" y="70" width="120" height="30" as="geometry" />
        </mxCell>
        <mxCell id="o3NR5IwMdfRiJCEFoLTd-68" value="FK" style="text;html=1;align=center;verticalAlign=middle;whiteSpace=wrap;rounded=0;" vertex="1" parent="o3NR5IwMdfRiJCEFoLTd-59">
          <mxGeometry y="45" width="40" height="20" as="geometry" />
        </mxCell>
        <mxCell id="o3NR5IwMdfRiJCEFoLTd-63" value="Дата выполнения" style="text;html=1;align=center;verticalAlign=middle;whiteSpace=wrap;rounded=0;fontStyle=4" vertex="1" parent="o3NR5IwMdfRiJCEFoLTd-59">
          <mxGeometry x="40" y="100" width="120" height="30" as="geometry" />
        </mxCell>
        <mxCell id="o3NR5IwMdfRiJCEFoLTd-72" value="FK" style="text;html=1;align=center;verticalAlign=middle;whiteSpace=wrap;rounded=0;" vertex="1" parent="o3NR5IwMdfRiJCEFoLTd-59">
          <mxGeometry y="75" width="40" height="20" as="geometry" />
        </mxCell>
        <mxCell id="MAcuXW1pETqjTC0wHc3h-1" value="Оценка" style="text;html=1;align=center;verticalAlign=middle;whiteSpace=wrap;rounded=0;fontStyle=4" vertex="1" parent="o3NR5IwMdfRiJCEFoLTd-59">
          <mxGeometry x="40" y="130" width="120" height="30" as="geometry" />
        </mxCell>
        <mxCell id="o3NR5IwMdfRiJCEFoLTd-74" value="" style="edgeStyle=entityRelationEdgeStyle;fontSize=12;html=1;endArrow=ERmany;rounded=0;entryX=1;entryY=0.5;entryDx=0;entryDy=0;exitX=0;exitY=0.5;exitDx=0;exitDy=0;" edge="1" parent="1" source="o3NR5IwMdfRiJCEFoLTd-50" target="o3NR5IwMdfRiJCEFoLTd-67">
          <mxGeometry width="100" height="100" relative="1" as="geometry">
            <mxPoint x="330" y="667.5" as="sourcePoint" />
            <mxPoint x="250" y="722.5" as="targetPoint" />
            <Array as="points">
              <mxPoint x="330" y="717.5" />
            </Array>
          </mxGeometry>
        </mxCell>
        <mxCell id="o3NR5IwMdfRiJCEFoLTd-76" value="" style="edgeStyle=entityRelationEdgeStyle;fontSize=12;html=1;endArrow=ERmany;rounded=0;exitX=0;exitY=0.5;exitDx=0;exitDy=0;entryX=1;entryY=0.5;entryDx=0;entryDy=0;" edge="1" parent="1" source="o3NR5IwMdfRiJCEFoLTd-2" target="o3NR5IwMdfRiJCEFoLTd-62">
          <mxGeometry width="100" height="100" relative="1" as="geometry">
            <mxPoint x="-20" y="560" as="sourcePoint" />
            <mxPoint x="170" y="245" as="targetPoint" />
            <Array as="points">
              <mxPoint x="50" y="530" />
              <mxPoint x="90" y="570" />
              <mxPoint x="60" y="540" />
            </Array>
          </mxGeometry>
        </mxCell>
        <mxCell id="o3NR5IwMdfRiJCEFoLTd-77" value="" style="edgeStyle=entityRelationEdgeStyle;fontSize=12;html=1;endArrow=ERmany;rounded=0;entryX=1;entryY=0.5;entryDx=0;entryDy=0;exitX=0;exitY=0.5;exitDx=0;exitDy=0;" edge="1" parent="1" source="o3NR5IwMdfRiJCEFoLTd-20" target="o3NR5IwMdfRiJCEFoLTd-57">
          <mxGeometry width="100" height="100" relative="1" as="geometry">
            <mxPoint x="550" y="745" as="sourcePoint" />
            <mxPoint x="490" y="490" as="targetPoint" />
            <Array as="points">
              <mxPoint x="650" y="932.5" />
            </Array>
          </mxGeometry>
        </mxCell>
      </root>
    </mxGraphModel>
  </diagram>
  <diagram id="pF8W_LNXkDL7js8V5naA" name="Задание 3">
    <mxGraphModel dx="802" dy="454" grid="1" gridSize="10" guides="1" tooltips="1" connect="1" arrows="1" fold="1" page="1" pageScale="1" pageWidth="1169" pageHeight="827" math="0" shadow="0">
      <root>
        <mxCell id="0" />
        <mxCell id="1" parent="0" />
        <mxCell id="xcRhKZO112pQNdsdNNsD-1" value="Студенты" style="swimlane;whiteSpace=wrap;html=1;fillColor=#FFFFFF;startSize=20;" vertex="1" parent="1">
          <mxGeometry x="260" y="210" width="160" height="130" as="geometry" />
        </mxCell>
        <mxCell id="xcRhKZO112pQNdsdNNsD-2" value="PK" style="text;html=1;align=center;verticalAlign=middle;whiteSpace=wrap;rounded=0;" vertex="1" parent="xcRhKZO112pQNdsdNNsD-1">
          <mxGeometry y="20" width="40" height="20" as="geometry" />
        </mxCell>
        <mxCell id="xcRhKZO112pQNdsdNNsD-3" value="ID Студента" style="text;html=1;align=center;verticalAlign=middle;whiteSpace=wrap;rounded=0;" vertex="1" parent="xcRhKZO112pQNdsdNNsD-1">
          <mxGeometry x="40" y="20" width="120" height="20" as="geometry" />
        </mxCell>
        <mxCell id="xcRhKZO112pQNdsdNNsD-4" value="ФИО Студента" style="text;html=1;align=center;verticalAlign=middle;whiteSpace=wrap;rounded=0;fontStyle=4;fontSize=12;" vertex="1" parent="xcRhKZO112pQNdsdNNsD-1">
          <mxGeometry x="40" y="40" width="120" height="30" as="geometry" />
        </mxCell>
        <mxCell id="xcRhKZO112pQNdsdNNsD-5" value="Дата рождения" style="text;html=1;align=center;verticalAlign=middle;whiteSpace=wrap;rounded=0;fontStyle=4" vertex="1" parent="xcRhKZO112pQNdsdNNsD-1">
          <mxGeometry x="40" y="70" width="120" height="30" as="geometry" />
        </mxCell>
        <mxCell id="xcRhKZO112pQNdsdNNsD-6" value="" style="endArrow=none;html=1;rounded=0;entryX=0;entryY=0;entryDx=0;entryDy=0;exitX=0.25;exitY=1;exitDx=0;exitDy=0;" edge="1" parent="xcRhKZO112pQNdsdNNsD-1" source="xcRhKZO112pQNdsdNNsD-1" target="xcRhKZO112pQNdsdNNsD-3">
          <mxGeometry width="50" height="50" relative="1" as="geometry">
            <mxPoint x="160" y="120" as="sourcePoint" />
            <mxPoint x="210" y="70" as="targetPoint" />
          </mxGeometry>
        </mxCell>
        <mxCell id="xcRhKZO112pQNdsdNNsD-7" value="Номер телефона" style="text;html=1;align=center;verticalAlign=middle;whiteSpace=wrap;rounded=0;fontStyle=4" vertex="1" parent="xcRhKZO112pQNdsdNNsD-1">
          <mxGeometry x="40" y="100" width="120" height="30" as="geometry" />
        </mxCell>
        <mxCell id="xcRhKZO112pQNdsdNNsD-8" value="" style="endArrow=none;html=1;rounded=0;entryX=0;entryY=1;entryDx=0;entryDy=0;exitX=1;exitY=1;exitDx=0;exitDy=0;" edge="1" parent="xcRhKZO112pQNdsdNNsD-1" source="xcRhKZO112pQNdsdNNsD-3" target="xcRhKZO112pQNdsdNNsD-2">
          <mxGeometry width="50" height="50" relative="1" as="geometry">
            <mxPoint x="200" y="40" as="sourcePoint" />
            <mxPoint x="250" y="70" as="targetPoint" />
          </mxGeometry>
        </mxCell>
        <mxCell id="xcRhKZO112pQNdsdNNsD-9" value="Преподаватели" style="swimlane;whiteSpace=wrap;html=1;fillColor=#FFFFFF;startSize=20;" vertex="1" parent="1">
          <mxGeometry x="710" y="210" width="160" height="160" as="geometry" />
        </mxCell>
        <mxCell id="xcRhKZO112pQNdsdNNsD-10" value="PK" style="text;html=1;align=center;verticalAlign=middle;whiteSpace=wrap;rounded=0;" vertex="1" parent="xcRhKZO112pQNdsdNNsD-9">
          <mxGeometry y="20" width="40" height="20" as="geometry" />
        </mxCell>
        <mxCell id="xcRhKZO112pQNdsdNNsD-11" value="ID Преподавателя" style="text;html=1;align=center;verticalAlign=middle;whiteSpace=wrap;rounded=0;" vertex="1" parent="xcRhKZO112pQNdsdNNsD-9">
          <mxGeometry x="40" y="20" width="120" height="20" as="geometry" />
        </mxCell>
        <mxCell id="xcRhKZO112pQNdsdNNsD-12" value="ФИО Преподавателя" style="text;html=1;align=center;verticalAlign=middle;whiteSpace=wrap;rounded=0;fontStyle=4;fontSize=12;" vertex="1" parent="xcRhKZO112pQNdsdNNsD-9">
          <mxGeometry x="40" y="40" width="120" height="30" as="geometry" />
        </mxCell>
        <mxCell id="xcRhKZO112pQNdsdNNsD-13" value="Дата рождения" style="text;html=1;align=center;verticalAlign=middle;whiteSpace=wrap;rounded=0;fontStyle=4" vertex="1" parent="xcRhKZO112pQNdsdNNsD-9">
          <mxGeometry x="40" y="70" width="120" height="30" as="geometry" />
        </mxCell>
        <mxCell id="xcRhKZO112pQNdsdNNsD-14" value="" style="endArrow=none;html=1;rounded=0;entryX=0;entryY=0;entryDx=0;entryDy=0;exitX=0.25;exitY=1;exitDx=0;exitDy=0;" edge="1" parent="xcRhKZO112pQNdsdNNsD-9" source="xcRhKZO112pQNdsdNNsD-9" target="xcRhKZO112pQNdsdNNsD-11">
          <mxGeometry width="50" height="50" relative="1" as="geometry">
            <mxPoint x="160" y="120" as="sourcePoint" />
            <mxPoint x="210" y="70" as="targetPoint" />
          </mxGeometry>
        </mxCell>
        <mxCell id="xcRhKZO112pQNdsdNNsD-15" value="Номер телефона" style="text;html=1;align=center;verticalAlign=middle;whiteSpace=wrap;rounded=0;fontStyle=4" vertex="1" parent="xcRhKZO112pQNdsdNNsD-9">
          <mxGeometry x="40" y="100" width="120" height="30" as="geometry" />
        </mxCell>
        <mxCell id="xcRhKZO112pQNdsdNNsD-16" value="" style="endArrow=none;html=1;rounded=0;entryX=0;entryY=1;entryDx=0;entryDy=0;exitX=1;exitY=1;exitDx=0;exitDy=0;" edge="1" parent="xcRhKZO112pQNdsdNNsD-9" source="xcRhKZO112pQNdsdNNsD-11" target="xcRhKZO112pQNdsdNNsD-10">
          <mxGeometry width="50" height="50" relative="1" as="geometry">
            <mxPoint x="200" y="40" as="sourcePoint" />
            <mxPoint x="250" y="70" as="targetPoint" />
          </mxGeometry>
        </mxCell>
        <mxCell id="xcRhKZO112pQNdsdNNsD-17" value="ID Кафедры" style="text;html=1;align=center;verticalAlign=middle;whiteSpace=wrap;rounded=0;fontStyle=4" vertex="1" parent="xcRhKZO112pQNdsdNNsD-9">
          <mxGeometry x="40" y="130" width="120" height="30" as="geometry" />
        </mxCell>
        <mxCell id="xcRhKZO112pQNdsdNNsD-18" value="FK" style="text;html=1;align=center;verticalAlign=middle;whiteSpace=wrap;rounded=0;" vertex="1" parent="xcRhKZO112pQNdsdNNsD-9">
          <mxGeometry y="135" width="40" height="20" as="geometry" />
        </mxCell>
        <mxCell id="xcRhKZO112pQNdsdNNsD-19" value="Курсы" style="swimlane;whiteSpace=wrap;html=1;fillColor=#FFFFFF;startSize=20;" vertex="1" parent="1">
          <mxGeometry x="490" y="340" width="160" height="130" as="geometry" />
        </mxCell>
        <mxCell id="xcRhKZO112pQNdsdNNsD-20" value="PK" style="text;html=1;align=center;verticalAlign=middle;whiteSpace=wrap;rounded=0;" vertex="1" parent="xcRhKZO112pQNdsdNNsD-19">
          <mxGeometry y="20" width="40" height="20" as="geometry" />
        </mxCell>
        <mxCell id="xcRhKZO112pQNdsdNNsD-21" value="ID Курса" style="text;html=1;align=center;verticalAlign=middle;whiteSpace=wrap;rounded=0;" vertex="1" parent="xcRhKZO112pQNdsdNNsD-19">
          <mxGeometry x="40" y="20" width="120" height="20" as="geometry" />
        </mxCell>
        <mxCell id="xcRhKZO112pQNdsdNNsD-22" value="Название курса" style="text;html=1;align=center;verticalAlign=middle;whiteSpace=wrap;rounded=0;fontStyle=4;fontSize=12;" vertex="1" parent="xcRhKZO112pQNdsdNNsD-19">
          <mxGeometry x="40" y="40" width="120" height="30" as="geometry" />
        </mxCell>
        <mxCell id="xcRhKZO112pQNdsdNNsD-23" value="ID Преподавателя" style="text;html=1;align=center;verticalAlign=middle;whiteSpace=wrap;rounded=0;fontStyle=4" vertex="1" parent="xcRhKZO112pQNdsdNNsD-19">
          <mxGeometry x="40" y="70" width="120" height="30" as="geometry" />
        </mxCell>
        <mxCell id="xcRhKZO112pQNdsdNNsD-24" value="" style="endArrow=none;html=1;rounded=0;entryX=0;entryY=0;entryDx=0;entryDy=0;exitX=0.25;exitY=1;exitDx=0;exitDy=0;" edge="1" parent="xcRhKZO112pQNdsdNNsD-19" source="xcRhKZO112pQNdsdNNsD-19" target="xcRhKZO112pQNdsdNNsD-21">
          <mxGeometry width="50" height="50" relative="1" as="geometry">
            <mxPoint x="160" y="120" as="sourcePoint" />
            <mxPoint x="210" y="70" as="targetPoint" />
          </mxGeometry>
        </mxCell>
        <mxCell id="xcRhKZO112pQNdsdNNsD-25" value="Длительность, часов" style="text;html=1;align=center;verticalAlign=middle;whiteSpace=wrap;rounded=0;fontStyle=4" vertex="1" parent="xcRhKZO112pQNdsdNNsD-19">
          <mxGeometry x="40" y="100" width="120" height="30" as="geometry" />
        </mxCell>
        <mxCell id="xcRhKZO112pQNdsdNNsD-26" value="" style="endArrow=none;html=1;rounded=0;entryX=0;entryY=1;entryDx=0;entryDy=0;exitX=1;exitY=1;exitDx=0;exitDy=0;" edge="1" parent="xcRhKZO112pQNdsdNNsD-19" source="xcRhKZO112pQNdsdNNsD-21" target="xcRhKZO112pQNdsdNNsD-20">
          <mxGeometry width="50" height="50" relative="1" as="geometry">
            <mxPoint x="200" y="40" as="sourcePoint" />
            <mxPoint x="250" y="70" as="targetPoint" />
          </mxGeometry>
        </mxCell>
        <mxCell id="xcRhKZO112pQNdsdNNsD-27" value="FK" style="text;html=1;align=center;verticalAlign=middle;whiteSpace=wrap;rounded=0;" vertex="1" parent="xcRhKZO112pQNdsdNNsD-19">
          <mxGeometry y="75" width="40" height="20" as="geometry" />
        </mxCell>
        <mxCell id="xcRhKZO112pQNdsdNNsD-28" value="Кафедры" style="swimlane;whiteSpace=wrap;html=1;fillColor=#FFFFFF;startSize=20;" vertex="1" parent="1">
          <mxGeometry x="710" y="400" width="160" height="130" as="geometry" />
        </mxCell>
        <mxCell id="xcRhKZO112pQNdsdNNsD-29" value="PK" style="text;html=1;align=center;verticalAlign=middle;whiteSpace=wrap;rounded=0;" vertex="1" parent="xcRhKZO112pQNdsdNNsD-28">
          <mxGeometry y="20" width="40" height="20" as="geometry" />
        </mxCell>
        <mxCell id="xcRhKZO112pQNdsdNNsD-30" value="ID Кафедры" style="text;html=1;align=center;verticalAlign=middle;whiteSpace=wrap;rounded=0;" vertex="1" parent="xcRhKZO112pQNdsdNNsD-28">
          <mxGeometry x="40" y="20" width="120" height="20" as="geometry" />
        </mxCell>
        <mxCell id="xcRhKZO112pQNdsdNNsD-31" value="Название кафедры" style="text;html=1;align=center;verticalAlign=middle;whiteSpace=wrap;rounded=0;fontStyle=4;fontSize=12;" vertex="1" parent="xcRhKZO112pQNdsdNNsD-28">
          <mxGeometry x="40" y="40" width="120" height="30" as="geometry" />
        </mxCell>
        <mxCell id="xcRhKZO112pQNdsdNNsD-32" value="" style="endArrow=none;html=1;rounded=0;entryX=0;entryY=0;entryDx=0;entryDy=0;exitX=0.25;exitY=1;exitDx=0;exitDy=0;" edge="1" parent="xcRhKZO112pQNdsdNNsD-28" source="xcRhKZO112pQNdsdNNsD-28" target="xcRhKZO112pQNdsdNNsD-30">
          <mxGeometry width="50" height="50" relative="1" as="geometry">
            <mxPoint x="160" y="120" as="sourcePoint" />
            <mxPoint x="210" y="70" as="targetPoint" />
          </mxGeometry>
        </mxCell>
        <mxCell id="xcRhKZO112pQNdsdNNsD-33" value="Устав" style="text;html=1;align=center;verticalAlign=middle;whiteSpace=wrap;rounded=0;fontStyle=4" vertex="1" parent="xcRhKZO112pQNdsdNNsD-28">
          <mxGeometry x="40" y="70" width="120" height="30" as="geometry" />
        </mxCell>
        <mxCell id="xcRhKZO112pQNdsdNNsD-34" value="" style="endArrow=none;html=1;rounded=0;entryX=0;entryY=1;entryDx=0;entryDy=0;exitX=1;exitY=1;exitDx=0;exitDy=0;" edge="1" parent="xcRhKZO112pQNdsdNNsD-28" source="xcRhKZO112pQNdsdNNsD-30" target="xcRhKZO112pQNdsdNNsD-29">
          <mxGeometry width="50" height="50" relative="1" as="geometry">
            <mxPoint x="200" y="40" as="sourcePoint" />
            <mxPoint x="250" y="70" as="targetPoint" />
          </mxGeometry>
        </mxCell>
        <mxCell id="xcRhKZO112pQNdsdNNsD-81" value="ID Заведующего" style="text;html=1;align=center;verticalAlign=middle;whiteSpace=wrap;rounded=0;fontStyle=4" vertex="1" parent="xcRhKZO112pQNdsdNNsD-28">
          <mxGeometry x="40" y="100" width="120" height="30" as="geometry" />
        </mxCell>
        <mxCell id="oQjixvjDmBU8R0kYWaup-8" value="FK" style="text;html=1;align=center;verticalAlign=middle;whiteSpace=wrap;rounded=0;" vertex="1" parent="xcRhKZO112pQNdsdNNsD-28">
          <mxGeometry y="105" width="40" height="20" as="geometry" />
        </mxCell>
        <mxCell id="xcRhKZO112pQNdsdNNsD-35" value="Зачисления" style="swimlane;whiteSpace=wrap;html=1;fillColor=#FFFFFF;startSize=20;" vertex="1" parent="1">
          <mxGeometry x="260" y="350" width="160" height="130" as="geometry" />
        </mxCell>
        <mxCell id="xcRhKZO112pQNdsdNNsD-36" value="PK" style="text;html=1;align=center;verticalAlign=middle;whiteSpace=wrap;rounded=0;" vertex="1" parent="xcRhKZO112pQNdsdNNsD-35">
          <mxGeometry y="20" width="40" height="20" as="geometry" />
        </mxCell>
        <mxCell id="xcRhKZO112pQNdsdNNsD-37" value="ID Зачисления" style="text;html=1;align=center;verticalAlign=middle;whiteSpace=wrap;rounded=0;" vertex="1" parent="xcRhKZO112pQNdsdNNsD-35">
          <mxGeometry x="40" y="20" width="120" height="20" as="geometry" />
        </mxCell>
        <mxCell id="xcRhKZO112pQNdsdNNsD-38" value="ID Студента" style="text;html=1;align=center;verticalAlign=middle;whiteSpace=wrap;rounded=0;fontStyle=4;fontSize=12;" vertex="1" parent="xcRhKZO112pQNdsdNNsD-35">
          <mxGeometry x="40" y="40" width="120" height="30" as="geometry" />
        </mxCell>
        <mxCell id="xcRhKZO112pQNdsdNNsD-39" value="ID Курса" style="text;html=1;align=center;verticalAlign=middle;whiteSpace=wrap;rounded=0;fontStyle=4" vertex="1" parent="xcRhKZO112pQNdsdNNsD-35">
          <mxGeometry x="40" y="70" width="120" height="30" as="geometry" />
        </mxCell>
        <mxCell id="xcRhKZO112pQNdsdNNsD-40" value="" style="endArrow=none;html=1;rounded=0;entryX=0;entryY=0;entryDx=0;entryDy=0;exitX=0.25;exitY=1;exitDx=0;exitDy=0;" edge="1" parent="xcRhKZO112pQNdsdNNsD-35" source="xcRhKZO112pQNdsdNNsD-35" target="xcRhKZO112pQNdsdNNsD-37">
          <mxGeometry width="50" height="50" relative="1" as="geometry">
            <mxPoint x="160" y="120" as="sourcePoint" />
            <mxPoint x="210" y="70" as="targetPoint" />
          </mxGeometry>
        </mxCell>
        <mxCell id="xcRhKZO112pQNdsdNNsD-41" value="Дата зачисления" style="text;html=1;align=center;verticalAlign=middle;whiteSpace=wrap;rounded=0;fontStyle=4" vertex="1" parent="xcRhKZO112pQNdsdNNsD-35">
          <mxGeometry x="40" y="100" width="120" height="30" as="geometry" />
        </mxCell>
        <mxCell id="xcRhKZO112pQNdsdNNsD-42" value="" style="endArrow=none;html=1;rounded=0;entryX=0;entryY=1;entryDx=0;entryDy=0;exitX=1;exitY=1;exitDx=0;exitDy=0;" edge="1" parent="xcRhKZO112pQNdsdNNsD-35" source="xcRhKZO112pQNdsdNNsD-37" target="xcRhKZO112pQNdsdNNsD-36">
          <mxGeometry width="50" height="50" relative="1" as="geometry">
            <mxPoint x="200" y="40" as="sourcePoint" />
            <mxPoint x="250" y="70" as="targetPoint" />
          </mxGeometry>
        </mxCell>
        <mxCell id="xcRhKZO112pQNdsdNNsD-43" value="FK" style="text;html=1;align=center;verticalAlign=middle;whiteSpace=wrap;rounded=0;" vertex="1" parent="xcRhKZO112pQNdsdNNsD-35">
          <mxGeometry y="45" width="40" height="20" as="geometry" />
        </mxCell>
        <mxCell id="xcRhKZO112pQNdsdNNsD-44" value="FK" style="text;html=1;align=center;verticalAlign=middle;whiteSpace=wrap;rounded=0;" vertex="1" parent="xcRhKZO112pQNdsdNNsD-35">
          <mxGeometry y="75" width="40" height="20" as="geometry" />
        </mxCell>
        <mxCell id="xcRhKZO112pQNdsdNNsD-45" value="" style="edgeStyle=entityRelationEdgeStyle;fontSize=12;html=1;endArrow=ERmany;rounded=0;exitX=1;exitY=0.5;exitDx=0;exitDy=0;entryX=1;entryY=0.5;entryDx=0;entryDy=0;" edge="1" parent="1" source="xcRhKZO112pQNdsdNNsD-30" target="xcRhKZO112pQNdsdNNsD-17">
          <mxGeometry width="100" height="100" relative="1" as="geometry">
            <mxPoint x="690" y="460" as="sourcePoint" />
            <mxPoint x="710" y="355" as="targetPoint" />
          </mxGeometry>
        </mxCell>
        <mxCell id="xcRhKZO112pQNdsdNNsD-46" value="" style="edgeStyle=entityRelationEdgeStyle;fontSize=12;html=1;endArrow=ERmany;rounded=0;entryX=1;entryY=0.5;entryDx=0;entryDy=0;exitX=0;exitY=0.5;exitDx=0;exitDy=0;" edge="1" parent="1" source="xcRhKZO112pQNdsdNNsD-10" target="xcRhKZO112pQNdsdNNsD-23">
          <mxGeometry width="100" height="100" relative="1" as="geometry">
            <mxPoint x="840" y="400" as="sourcePoint" />
            <mxPoint x="780" y="495" as="targetPoint" />
            <Array as="points">
              <mxPoint x="670" y="330" />
            </Array>
          </mxGeometry>
        </mxCell>
        <mxCell id="xcRhKZO112pQNdsdNNsD-47" value="" style="edgeStyle=entityRelationEdgeStyle;fontSize=12;html=1;endArrow=ERmany;rounded=0;entryX=1;entryY=0.75;entryDx=0;entryDy=0;exitX=1;exitY=0.5;exitDx=0;exitDy=0;" edge="1" parent="1" source="xcRhKZO112pQNdsdNNsD-3" target="xcRhKZO112pQNdsdNNsD-38">
          <mxGeometry width="100" height="100" relative="1" as="geometry">
            <mxPoint x="530" y="240" as="sourcePoint" />
            <mxPoint x="470" y="495" as="targetPoint" />
          </mxGeometry>
        </mxCell>
        <mxCell id="xcRhKZO112pQNdsdNNsD-48" value="" style="edgeStyle=elbowEdgeStyle;fontSize=12;html=1;endArrow=ERmany;rounded=0;exitX=0;exitY=0.5;exitDx=0;exitDy=0;entryX=1;entryY=0.5;entryDx=0;entryDy=0;" edge="1" parent="1" source="xcRhKZO112pQNdsdNNsD-20" target="xcRhKZO112pQNdsdNNsD-39">
          <mxGeometry width="100" height="100" relative="1" as="geometry">
            <mxPoint x="550" y="240" as="sourcePoint" />
            <mxPoint x="615" y="345" as="targetPoint" />
            <Array as="points">
              <mxPoint x="460" y="400" />
            </Array>
          </mxGeometry>
        </mxCell>
        <mxCell id="xcRhKZO112pQNdsdNNsD-49" value="Домашние задания" style="swimlane;whiteSpace=wrap;html=1;fillColor=#FFFFFF;startSize=20;" vertex="1" parent="1">
          <mxGeometry x="260" y="500" width="160" height="130" as="geometry" />
        </mxCell>
        <mxCell id="xcRhKZO112pQNdsdNNsD-50" value="PK" style="text;html=1;align=center;verticalAlign=middle;whiteSpace=wrap;rounded=0;" vertex="1" parent="xcRhKZO112pQNdsdNNsD-49">
          <mxGeometry y="20" width="40" height="20" as="geometry" />
        </mxCell>
        <mxCell id="xcRhKZO112pQNdsdNNsD-51" value="ID Задания" style="text;html=1;align=center;verticalAlign=middle;whiteSpace=wrap;rounded=0;" vertex="1" parent="xcRhKZO112pQNdsdNNsD-49">
          <mxGeometry x="40" y="20" width="120" height="20" as="geometry" />
        </mxCell>
        <mxCell id="xcRhKZO112pQNdsdNNsD-52" value="Название задания" style="text;html=1;align=center;verticalAlign=middle;whiteSpace=wrap;rounded=0;fontStyle=4;fontSize=12;" vertex="1" parent="xcRhKZO112pQNdsdNNsD-49">
          <mxGeometry x="40" y="40" width="120" height="30" as="geometry" />
        </mxCell>
        <mxCell id="xcRhKZO112pQNdsdNNsD-53" value="Описание" style="text;html=1;align=center;verticalAlign=middle;whiteSpace=wrap;rounded=0;fontStyle=4" vertex="1" parent="xcRhKZO112pQNdsdNNsD-49">
          <mxGeometry x="40" y="70" width="120" height="30" as="geometry" />
        </mxCell>
        <mxCell id="xcRhKZO112pQNdsdNNsD-54" value="" style="endArrow=none;html=1;rounded=0;entryX=0;entryY=0;entryDx=0;entryDy=0;exitX=0.25;exitY=1;exitDx=0;exitDy=0;" edge="1" parent="xcRhKZO112pQNdsdNNsD-49" source="xcRhKZO112pQNdsdNNsD-49" target="xcRhKZO112pQNdsdNNsD-51">
          <mxGeometry width="50" height="50" relative="1" as="geometry">
            <mxPoint x="160" y="120" as="sourcePoint" />
            <mxPoint x="210" y="70" as="targetPoint" />
          </mxGeometry>
        </mxCell>
        <mxCell id="xcRhKZO112pQNdsdNNsD-55" value="" style="endArrow=none;html=1;rounded=0;entryX=0;entryY=1;entryDx=0;entryDy=0;exitX=1;exitY=1;exitDx=0;exitDy=0;" edge="1" parent="xcRhKZO112pQNdsdNNsD-49" source="xcRhKZO112pQNdsdNNsD-51" target="xcRhKZO112pQNdsdNNsD-50">
          <mxGeometry width="50" height="50" relative="1" as="geometry">
            <mxPoint x="200" y="40" as="sourcePoint" />
            <mxPoint x="250" y="70" as="targetPoint" />
          </mxGeometry>
        </mxCell>
        <mxCell id="xcRhKZO112pQNdsdNNsD-56" value="ID Курса" style="text;html=1;align=center;verticalAlign=middle;whiteSpace=wrap;rounded=0;fontStyle=4" vertex="1" parent="xcRhKZO112pQNdsdNNsD-49">
          <mxGeometry x="40" y="100" width="120" height="30" as="geometry" />
        </mxCell>
        <mxCell id="xcRhKZO112pQNdsdNNsD-57" value="FK" style="text;html=1;align=center;verticalAlign=middle;whiteSpace=wrap;rounded=0;" vertex="1" parent="xcRhKZO112pQNdsdNNsD-49">
          <mxGeometry y="105" width="40" height="20" as="geometry" />
        </mxCell>
        <mxCell id="xcRhKZO112pQNdsdNNsD-58" value="Выполнение ДЗ" style="swimlane;whiteSpace=wrap;html=1;fillColor=#FFFFFF;startSize=20;" vertex="1" parent="1">
          <mxGeometry x="40" y="180" width="160" height="160" as="geometry" />
        </mxCell>
        <mxCell id="xcRhKZO112pQNdsdNNsD-59" value="PK" style="text;html=1;align=center;verticalAlign=middle;whiteSpace=wrap;rounded=0;" vertex="1" parent="xcRhKZO112pQNdsdNNsD-58">
          <mxGeometry y="20" width="40" height="20" as="geometry" />
        </mxCell>
        <mxCell id="xcRhKZO112pQNdsdNNsD-60" value="ID Выполнения" style="text;html=1;align=center;verticalAlign=middle;whiteSpace=wrap;rounded=0;" vertex="1" parent="xcRhKZO112pQNdsdNNsD-58">
          <mxGeometry x="40" y="20" width="120" height="20" as="geometry" />
        </mxCell>
        <mxCell id="xcRhKZO112pQNdsdNNsD-61" value="ID Студента" style="text;html=1;align=center;verticalAlign=middle;whiteSpace=wrap;rounded=0;fontStyle=4;fontSize=12;" vertex="1" parent="xcRhKZO112pQNdsdNNsD-58">
          <mxGeometry x="40" y="40" width="120" height="30" as="geometry" />
        </mxCell>
        <mxCell id="xcRhKZO112pQNdsdNNsD-62" value="" style="endArrow=none;html=1;rounded=0;entryX=0;entryY=0;entryDx=0;entryDy=0;exitX=0.25;exitY=1;exitDx=0;exitDy=0;" edge="1" parent="xcRhKZO112pQNdsdNNsD-58" source="xcRhKZO112pQNdsdNNsD-58" target="xcRhKZO112pQNdsdNNsD-60">
          <mxGeometry width="50" height="50" relative="1" as="geometry">
            <mxPoint x="160" y="120" as="sourcePoint" />
            <mxPoint x="210" y="70" as="targetPoint" />
          </mxGeometry>
        </mxCell>
        <mxCell id="xcRhKZO112pQNdsdNNsD-63" value="" style="endArrow=none;html=1;rounded=0;entryX=0;entryY=1;entryDx=0;entryDy=0;exitX=1;exitY=1;exitDx=0;exitDy=0;" edge="1" parent="xcRhKZO112pQNdsdNNsD-58" source="xcRhKZO112pQNdsdNNsD-60" target="xcRhKZO112pQNdsdNNsD-59">
          <mxGeometry width="50" height="50" relative="1" as="geometry">
            <mxPoint x="200" y="40" as="sourcePoint" />
            <mxPoint x="250" y="70" as="targetPoint" />
          </mxGeometry>
        </mxCell>
        <mxCell id="xcRhKZO112pQNdsdNNsD-64" value="ID Задания" style="text;html=1;align=center;verticalAlign=middle;whiteSpace=wrap;rounded=0;fontStyle=4" vertex="1" parent="xcRhKZO112pQNdsdNNsD-58">
          <mxGeometry x="40" y="70" width="120" height="30" as="geometry" />
        </mxCell>
        <mxCell id="xcRhKZO112pQNdsdNNsD-65" value="FK" style="text;html=1;align=center;verticalAlign=middle;whiteSpace=wrap;rounded=0;" vertex="1" parent="xcRhKZO112pQNdsdNNsD-58">
          <mxGeometry y="45" width="40" height="20" as="geometry" />
        </mxCell>
        <mxCell id="xcRhKZO112pQNdsdNNsD-66" value="Дата выполнения" style="text;html=1;align=center;verticalAlign=middle;whiteSpace=wrap;rounded=0;fontStyle=4" vertex="1" parent="xcRhKZO112pQNdsdNNsD-58">
          <mxGeometry x="40" y="100" width="120" height="30" as="geometry" />
        </mxCell>
        <mxCell id="xcRhKZO112pQNdsdNNsD-67" value="FK" style="text;html=1;align=center;verticalAlign=middle;whiteSpace=wrap;rounded=0;" vertex="1" parent="xcRhKZO112pQNdsdNNsD-58">
          <mxGeometry y="75" width="40" height="20" as="geometry" />
        </mxCell>
        <mxCell id="oQjixvjDmBU8R0kYWaup-1" value="Оценка" style="text;html=1;align=center;verticalAlign=middle;whiteSpace=wrap;rounded=0;fontStyle=4" vertex="1" parent="xcRhKZO112pQNdsdNNsD-58">
          <mxGeometry x="40" y="130" width="120" height="30" as="geometry" />
        </mxCell>
        <mxCell id="xcRhKZO112pQNdsdNNsD-68" value="" style="edgeStyle=entityRelationEdgeStyle;fontSize=12;html=1;endArrow=ERmany;rounded=0;entryX=1;entryY=0.5;entryDx=0;entryDy=0;exitX=0;exitY=0.5;exitDx=0;exitDy=0;" edge="1" parent="1" source="xcRhKZO112pQNdsdNNsD-50" target="xcRhKZO112pQNdsdNNsD-64">
          <mxGeometry width="100" height="100" relative="1" as="geometry">
            <mxPoint x="330" y="667.5" as="sourcePoint" />
            <mxPoint x="250" y="722.5" as="targetPoint" />
            <Array as="points">
              <mxPoint x="330" y="717.5" />
            </Array>
          </mxGeometry>
        </mxCell>
        <mxCell id="xcRhKZO112pQNdsdNNsD-69" value="" style="edgeStyle=entityRelationEdgeStyle;fontSize=12;html=1;endArrow=ERmany;rounded=0;exitX=0;exitY=0.5;exitDx=0;exitDy=0;entryX=1;entryY=0.5;entryDx=0;entryDy=0;" edge="1" parent="1" source="xcRhKZO112pQNdsdNNsD-2" target="xcRhKZO112pQNdsdNNsD-61">
          <mxGeometry width="100" height="100" relative="1" as="geometry">
            <mxPoint x="-20" y="560" as="sourcePoint" />
            <mxPoint x="170" y="245" as="targetPoint" />
            <Array as="points">
              <mxPoint x="50" y="530" />
              <mxPoint x="90" y="570" />
              <mxPoint x="60" y="540" />
            </Array>
          </mxGeometry>
        </mxCell>
        <mxCell id="xcRhKZO112pQNdsdNNsD-70" value="" style="edgeStyle=elbowEdgeStyle;fontSize=12;html=1;endArrow=ERmany;rounded=0;entryX=1;entryY=0.5;entryDx=0;entryDy=0;exitX=0;exitY=0.5;exitDx=0;exitDy=0;" edge="1" parent="1" source="xcRhKZO112pQNdsdNNsD-20" target="xcRhKZO112pQNdsdNNsD-56">
          <mxGeometry width="100" height="100" relative="1" as="geometry">
            <mxPoint x="550" y="745" as="sourcePoint" />
            <mxPoint x="490" y="490" as="targetPoint" />
            <Array as="points">
              <mxPoint x="470" y="490" />
            </Array>
          </mxGeometry>
        </mxCell>
        <mxCell id="oQjixvjDmBU8R0kYWaup-4" value="" style="edgeStyle=elbowEdgeStyle;fontSize=12;html=1;endArrow=ERzeroToOne;startArrow=ERmandOne;rounded=0;entryX=1;entryY=0.5;entryDx=0;entryDy=0;exitX=1;exitY=0.5;exitDx=0;exitDy=0;" edge="1" parent="1" source="xcRhKZO112pQNdsdNNsD-81" target="xcRhKZO112pQNdsdNNsD-11">
          <mxGeometry width="100" height="100" relative="1" as="geometry">
            <mxPoint x="910" y="500" as="sourcePoint" />
            <mxPoint x="950.0000000000002" y="240" as="targetPoint" />
            <Array as="points">
              <mxPoint x="930" y="390" />
            </Array>
          </mxGeometry>
        </mxCell>
      </root>
    </mxGraphModel>
  </diagram>
</mxfile>
